<svg viewBox="0 0 123 119.3529" fill="none" xmlns="http://www.w3.org/2000/svg" xmlns:xlink="http://www.w3.org/1999/xlink" x="0" y="0"><g id="Logo Vertical">
<g id="Logomark_8">
<path id="Vector_174" d="M61.5,44c7.732,0 14,6.27 14,14c0,7.73 -6.268,14 -14,14c-7.732,0 -14,-6.27 -14,-14c0,-7.73 6.268,-14 14,-14z" fill="currentColor"/>
<path id="Vector_175" d="M39.5,22c7.732,0 14,6.27 14,14c0,7.73 -6.268,14 -14,14c-7.732,0 -14,-6.27 -14,-14c0,-7.73 6.268,-14 14,-14z" fill="currentColor"/>
<path id="Vector_176" d="M61.5,0c7.732,0 14,6.27 14,14c0,7.73 -6.268,14 -14,14c-7.732,0 -14,-6.27 -14,-14c0,-7.73 6.268,-14 14,-14z" fill="currentColor"/>
<path id="Vector_177" d="M83.5,22c7.732,0 14,6.27 14,14c0,7.73 -6.268,14 -14,14c-7.732,0 -14,-6.27 -14,-14c0,-7.73 6.268,-14 14,-14z" fill="currentColor"/>
</g>
<g id="freud ai_2">
<path d="M7.083,94.35v4.25h5.477v4.93h-5.477v15.3h-4.896v-15.3h-2.187v-4.93h2.187v-4.25c0,-1.16 0.281,-2.22 0.843,-3.17c0.575,-0.98 1.344,-1.74 2.307,-2.31c0.963,-0.58 2.026,-0.87 3.19,-0.87c0.843,0 1.679,0.18 2.508,0.53c0.829,0.35 1.565,0.89 2.207,1.61l-3.531,3.48c-0.12,-0.23 -0.294,-0.39 -0.522,-0.5c-0.214,-0.12 -0.434,-0.18 -0.662,-0.18c-0.388,0 -0.729,0.14 -1.023,0.42c-0.281,0.27 -0.421,0.6 -0.421,0.99z" fill="currentColor"/>
<path d="M14.432,118.83l-0.02,-20.23h4.895l0.02,1.8c0.682,-0.73 1.498,-1.3 2.448,-1.72c0.95,-0.43 1.973,-0.65 3.07,-0.65c0.735,0 1.471,0.11 2.207,0.33l-1.926,4.97c-0.509,-0.2 -1.017,-0.3 -1.525,-0.3c-0.789,0 -1.512,0.19 -2.167,0.59c-0.642,0.37 -1.157,0.89 -1.545,1.55c-0.375,0.65 -0.562,1.37 -0.562,2.17v11.49z" fill="currentColor"/>
<path d="M35.385,119.35c-1.846,0 -3.532,-0.48 -5.057,-1.43c-1.511,-0.96 -2.722,-2.25 -3.631,-3.87c-0.896,-1.61 -1.344,-3.4 -1.344,-5.36c0,-1.47 0.26,-2.84 0.782,-4.12c0.522,-1.3 1.237,-2.43 2.147,-3.4c0.923,-0.99 1.993,-1.75 3.21,-2.31c1.217,-0.55 2.515,-0.83 3.893,-0.83c1.565,0 2.996,0.34 4.293,1.01c1.311,0.67 2.421,1.58 3.331,2.74c0.909,1.15 1.572,2.48 1.986,3.96c0.415,1.48 0.509,3.03 0.281,4.65h-14.667c0.188,0.76 0.495,1.44 0.923,2.05c0.428,0.59 0.97,1.07 1.626,1.43c0.655,0.35 1.397,0.53 2.227,0.55c0.856,0.01 1.631,-0.19 2.327,-0.61c0.709,-0.43 1.297,-1.01 1.766,-1.74l4.996,1.17c-0.816,1.8 -2.034,3.27 -3.652,4.41c-1.619,1.14 -3.431,1.7 -5.437,1.7zM30.449,106.69h9.871c-0.147,-0.81 -0.461,-1.54 -0.943,-2.18c-0.468,-0.66 -1.05,-1.19 -1.745,-1.58c-0.696,-0.39 -1.445,-0.59 -2.247,-0.59c-0.803,0 -1.545,0.2 -2.227,0.59c-0.683,0.38 -1.265,0.89 -1.746,1.56c-0.468,0.64 -0.789,1.38 -0.963,2.2z" fill="currentColor"/>
<path d="M45.501,111.34v-12.74h4.896v11.45c0,0.79 0.194,1.52 0.582,2.18c0.388,0.65 0.903,1.17 1.545,1.56c0.655,0.38 1.371,0.57 2.146,0.57c0.803,0 1.525,-0.19 2.167,-0.57c0.642,-0.39 1.157,-0.91 1.545,-1.56c0.388,-0.66 0.582,-1.39 0.582,-2.18v-11.45h4.896l0.02,20.23h-4.896l-0.02,-1.84c-0.695,0.72 -1.518,1.3 -2.468,1.74c-0.949,0.41 -1.966,0.62 -3.049,0.62c-1.458,0 -2.789,-0.35 -3.993,-1.07c-1.204,-0.73 -2.167,-1.69 -2.889,-2.89c-0.709,-1.22 -1.064,-2.56 -1.064,-4.05z" fill="currentColor"/>
<path d="M80.945,88.49h4.896v30.34h-4.896v-2.53c-0.642,0.9 -1.451,1.64 -2.428,2.2c-0.976,0.57 -2.106,0.85 -3.39,0.85c-1.458,0 -2.823,-0.27 -4.093,-0.83c-1.271,-0.55 -2.395,-1.31 -3.371,-2.28c-0.963,-0.99 -1.719,-2.12 -2.267,-3.4c-0.549,-1.28 -0.823,-2.66 -0.823,-4.13c0,-1.47 0.274,-2.84 0.823,-4.12c0.548,-1.28 1.304,-2.41 2.267,-3.38c0.976,-0.99 2.1,-1.75 3.371,-2.31c1.27,-0.55 2.635,-0.83 4.093,-0.83c1.284,0 2.414,0.29 3.39,0.85c0.977,0.56 1.786,1.29 2.428,2.21zM75.187,114.6c1.043,0 1.966,-0.26 2.769,-0.79c0.802,-0.53 1.431,-1.23 1.886,-2.12c0.454,-0.91 0.682,-1.9 0.682,-2.98c0,-1.09 -0.228,-2.08 -0.682,-2.97c-0.455,-0.9 -1.091,-1.62 -1.907,-2.14c-0.802,-0.53 -1.718,-0.79 -2.748,-0.79c-1.03,0 -1.973,0.27 -2.829,0.81c-0.843,0.52 -1.518,1.23 -2.027,2.12c-0.495,0.89 -0.742,1.88 -0.742,2.97c0,1.1 0.254,2.09 0.762,2.98c0.509,0.89 1.184,1.59 2.027,2.12c0.856,0.53 1.792,0.79 2.809,0.79z" fill="currentColor"/>
<path d="M90.56,119.35c-0.695,0 -1.29,-0.24 -1.785,-0.73c-0.482,-0.49 -0.723,-1.1 -0.723,-1.82c0,-0.68 0.241,-1.28 0.723,-1.78c0.495,-0.49 1.09,-0.74 1.785,-0.74c0.696,0 1.291,0.25 1.786,0.74c0.495,0.5 0.742,1.1 0.742,1.78c0,0.72 -0.247,1.33 -0.742,1.82c-0.495,0.49 -1.09,0.73 -1.786,0.73z" fill="currentColor"/>
<path d="M110.916,98.6h4.896v20.23h-4.896l-0.221,-2.51c-0.548,0.9 -1.277,1.64 -2.186,2.2c-0.897,0.56 -1.96,0.83 -3.191,0.83c-1.484,0 -2.875,-0.28 -4.173,-0.85c-1.297,-0.56 -2.441,-1.35 -3.431,-2.34c-0.976,-1 -1.745,-2.15 -2.307,-3.46c-0.549,-1.31 -0.823,-2.71 -0.823,-4.21c0,-1.44 0.261,-2.8 0.783,-4.07c0.535,-1.26 1.277,-2.38 2.227,-3.33c0.949,-0.96 2.046,-1.71 3.29,-2.25c1.244,-0.54 2.582,-0.81 4.013,-0.81c1.324,0 2.508,0.3 3.551,0.89c1.057,0.6 1.953,1.35 2.689,2.27zM105.198,114.6c1.043,0 1.966,-0.26 2.769,-0.79c0.802,-0.53 1.431,-1.23 1.886,-2.12c0.455,-0.91 0.682,-1.9 0.682,-2.98c0,-1.09 -0.227,-2.08 -0.682,-2.97c-0.455,-0.9 -1.09,-1.62 -1.906,-2.14c-0.803,-0.53 -1.719,-0.79 -2.749,-0.79c-1.03,0 -1.973,0.27 -2.829,0.81c-0.843,0.52 -1.518,1.23 -2.027,2.12c-0.494,0.89 -0.742,1.88 -0.742,2.97c0,1.1 0.254,2.09 0.763,2.98c0.508,0.89 1.183,1.59 2.026,2.12c0.856,0.53 1.792,0.79 2.809,0.79z" fill="currentColor"/>
<path d="M118.004,98.6h4.896v20.23h-4.896zM120.492,95.99c-0.722,0 -1.331,-0.24 -1.826,-0.71c-0.495,-0.48 -0.742,-1.09 -0.742,-1.82c0,-0.71 0.247,-1.31 0.742,-1.8c0.495,-0.48 1.097,-0.73 1.806,-0.73c0.709,0 1.304,0.25 1.786,0.73c0.495,0.49 0.742,1.09 0.742,1.8c0,0.73 -0.241,1.34 -0.722,1.82c-0.482,0.47 -1.077,0.71 -1.786,0.71z" fill="currentColor"/>
</g>
</g></svg>